<?xml version="1.0" encoding="UTF-8"?>
<svg width="652px" height="181px" viewBox="0 0 652 181" version="1.1" xmlns="http://www.w3.org/2000/svg" xmlns:xlink="http://www.w3.org/1999/xlink">
    <!-- Generator: Sketch 51.1 (57501) - http://www.bohemiancoding.com/sketch -->
    <title>Group</title>
    <desc>Created with Sketch.</desc>
    <defs>
        <linearGradient x1="7.36144962%" y1="-3.64256254%" x2="94.3690475%" y2="107.568395%" id="linearGradient-1">
            <stop stop-color="#FE6B8B" offset="0%"></stop>
            <stop stop-color="#FF8E53" offset="100%"></stop>
        </linearGradient>
    </defs>
    <g id="Page-1" stroke="none" stroke-width="1" fill="none" fill-rule="evenodd">
        <g id="Artboard-2" transform="translate(-303.000000, -299.000000)" fill-rule="nonzero">
            <g id="Group" transform="translate(303.000000, 299.000000)">
                <g id="film-strip" fill="#000000">
                    <path d="M226.25,113.125 C217.920229,113.125 211.166667,119.878563 211.166667,128.208333 C211.166667,140.684607 201.01794,150.833333 188.541667,150.833333 L157.818802,150.833333 C172.185677,134.814833 181,113.712307 181,90.5 C181,40.5180755 140.481924,0 90.5,0 C40.5180755,0 0,40.5180755 0,90.5 C0,140.481924 40.5180755,181 90.5,181 C93.0462552,181 95.5486745,180.825128 98.0416667,180.618674 L98.0416667,181 L188.541667,181 C217.647786,181 241.333333,157.314453 241.333333,128.208333 C241.333333,119.878563 234.579771,113.125 226.25,113.125 Z M90.5,22.625 C102.994656,22.625 113.125,32.7553437 113.125,45.25 C113.125,57.7446563 102.994656,67.875 90.5,67.875 C78.0053437,67.875 67.875,57.7446563 67.875,45.25 C67.875,32.7553437 78.0053437,22.625 90.5,22.625 Z M98.0416667,90.5 C98.0416667,94.6648854 94.6648854,98.0416667 90.5,98.0416667 C86.3351146,98.0416667 82.9583333,94.6648854 82.9583333,90.5 C82.9583333,86.3351146 86.3351146,82.9583333 90.5,82.9583333 C94.6648854,82.9583333 98.0416667,86.3351146 98.0416667,90.5 Z M45.25,113.125 C32.7553438,113.125 22.625,102.994656 22.625,90.5 C22.625,78.0053438 32.7553438,67.875 45.25,67.875 C57.7446562,67.875 67.875,78.0053437 67.875,90.5 C67.875,102.994656 57.7446562,113.125 45.25,113.125 Z M90.5,158.375 C78.0053437,158.375 67.875,148.244656 67.875,135.75 C67.875,123.255344 78.0053437,113.125 90.5,113.125 C102.994656,113.125 113.125,123.255344 113.125,135.75 C113.125,148.244656 102.994656,158.375 90.5,158.375 Z M135.75,113.125 C123.255344,113.125 113.125,102.994656 113.125,90.5 C113.125,78.0053438 123.255344,67.875 135.75,67.875 C148.244656,67.875 158.375,78.0053437 158.375,90.5 C158.375,102.994656 148.244656,113.125 135.75,113.125 Z" id="Shape"></path>
                </g>
                <path d="M164,131 L164,45.2 L217.76,45.2 L217.76,63.2 L185,63.2 L185,78.8 L211.16,78.8 L211.16,96.8 L185,96.8 L185,113 L219.44,113 L219.44,131 L164,131 Z M230.72,108.2 L230.72,45.2 L251.48,45.2 L251.48,105.44 C251.48,108.480015 251.859996,110.559994 252.62,111.68 C253.380004,112.800006 254.919988,113.36 257.24,113.36 C258.280005,113.36 259.119997,113.32 259.76,113.24 L259.76,131.24 C256.879986,131.480001 254.800006,131.6 253.52,131.6 C250.319984,131.6 247.540012,131.340003 245.18,130.82 C242.819988,130.299997 240.460012,129.280008 238.1,127.76 C235.739988,126.239992 233.920006,123.840016 232.64,120.56 C231.359994,117.279984 230.72,113.160025 230.72,108.2 Z M269.84,61.4 L269.84,45.2 L290.12,45.2 L290.12,61.4 L269.84,61.4 Z M269.6,131 L269.6,69.2 L290.36,69.2 L290.36,131 L269.6,131 Z M307.88,108.2 L307.88,86.48 L299.96,86.48 L299.96,70.28 L308.48,70.28 L308.48,52.52 L328.64,52.52 L328.64,70.28 L341.6,70.28 L341.6,86.48 L328.64,86.48 L328.64,105.44 C328.64,110.720026 332.319963,113.36 339.68,113.36 C340.640005,113.36 341.559996,113.32 342.44,113.24 L342.44,131.24 C339.319984,131.480001 337.440003,131.6 336.8,131.6 C334.87999,131.6 333.020009,131.500001 331.22,131.3 C329.419991,131.099999 327.340012,130.720003 324.98,130.16 C322.619988,129.599997 320.500009,128.760006 318.62,127.64 C316.739991,126.519994 314.960008,125.140008 313.28,123.5 C311.599992,121.859992 310.280005,119.720013 309.32,117.08 C308.359995,114.439987 307.88,111.480016 307.88,108.2 Z" id="Elit" fill="url(#linearGradient-1)"></path>
                <path d="M354.26,131 L360.64,53.34 L371.97,53.34 L389.9,95.36 L393.64,105.81 L393.86,105.81 C395.25334,101.703313 396.536661,98.2200143 397.71,95.36 L415.64,53.34 L426.97,53.34 L433.24,131 L422.46,131 L418.72,82.05 L418.5,70.61 L418.28,70.61 C416.666659,75.3766905 415.273339,79.1899857 414.1,82.05 L398.59,117.03 L388.91,117.03 L373.51,82.05 L369.33,70.39 L369.11,70.39 C369.256667,75.0100231 369.183335,78.8966509 368.89,82.05 L365.15,131 L354.26,131 Z M445.23,103.06 C445.23,94.7732919 448.126638,87.8616943 453.92,82.325 C459.713362,76.7883057 466.789958,74.02 475.15,74.02 C483.583375,74.02 490.696638,76.7699725 496.49,82.27 C502.283362,87.7700275 505.18,94.6999582 505.18,103.06 C505.18,111.420042 502.283362,118.386639 496.49,123.96 C490.696638,129.533361 483.620042,132.32 475.26,132.32 C466.899958,132.32 459.805029,129.533361 453.975,123.96 C448.144971,118.386639 445.23,111.420042 445.23,103.06 Z M456.12,103.06 C456.12,108.853362 457.971648,113.638314 461.675,117.415 C465.378352,121.191686 469.90664,123.08 475.26,123.08 C480.540026,123.08 485.049981,121.173352 488.79,117.36 C492.530019,113.546648 494.4,108.780029 494.4,103.06 C494.4,97.3399714 492.530019,92.6100187 488.79,88.87 C485.049981,85.1299813 480.540026,83.26 475.26,83.26 C469.90664,83.26 465.378352,85.1299813 461.675,88.87 C457.971648,92.6100187 456.12,97.3399714 456.12,103.06 Z M532.79,131 L511.89,75.34 L523.22,75.34 L536.75,112.96 L538.73,120.55 L538.95,120.55 C539.53667,117.543318 540.159997,115.013344 540.82,112.96 L554.35,75.34 L565.57,75.34 L545,131 L532.79,131 Z M575.91,64.12 L575.91,53.34 L586.91,53.34 L586.91,64.12 L575.91,64.12 Z M576.13,131 L576.13,75.34 L586.8,75.34 L586.8,131 L576.13,131 Z M599.56,103.17 C599.56,94.4432897 602.199974,87.4033601 607.48,82.05 C612.760026,76.6966399 619.433293,74.02 627.5,74.02 C635.053371,74.02 640.956645,76.4949753 645.21,81.445 C649.463355,86.3950248 651.59,92.6099626 651.59,100.09 C651.59,101.043338 651.443335,102.546656 651.15,104.6 L610.67,104.6 C610.963335,110.393362 612.924982,114.92165 616.555,118.185 C620.185018,121.44835 624.603307,123.08 629.81,123.08 C635.896697,123.08 641.359976,120.916688 646.2,116.59 L650.71,124.4 C648.069987,126.820012 644.788353,128.744993 640.865,130.175 C636.941647,131.605007 633.036686,132.32 629.15,132.32 C620.496623,132.32 613.401694,129.551694 607.865,124.015 C602.328306,118.478306 599.56,111.530042 599.56,103.17 Z M611,96.9 L640.81,96.9 C640.663333,92.2799769 639.325013,88.6866795 636.795,86.12 C634.264987,83.5533205 631.093352,82.27 627.28,82.27 C623.099979,82.27 619.525015,83.5716537 616.555,86.175 C613.584985,88.7783463 611.733337,92.3533106 611,96.9 Z" id="Movie" fill="#000000"></path>
            </g>
        </g>
    </g>
</svg>